<?xml version="1.0" encoding="utf-8"?>
<!-- Generator: Adobe Illustrator 24.0.2, SVG Export Plug-In . SVG Version: 6.00 Build 0)  -->
<svg version="1.1" id="Calque_1" xmlns="http://www.w3.org/2000/svg" xmlns:xlink="http://www.w3.org/1999/xlink" x="0px" y="0px"
	 viewBox="0 0 661 514" style="enable-background:new 0 0 661 514;" xml:space="preserve">
<style type="text/css">
	.st0{fill:#FFE4CC;}
	.st1{fill:#3F3D56;}
	.st2{fill:#FFFFFF;}
	.st3{fill:#2F2E41;}
	.st4{fill:#A0616A;}
	.st5{fill:#D0CDE1;}
	.st6{opacity:0.15;enable-background:new    ;}
</style>
<g>
	<rect x="363.6" y="171.1" class="st0" width="95.4" height="95.4"/>
	<rect x="249.4" y="308.6" class="st0" width="178.3" height="98"/>
	<rect x="153.9" y="151" class="st0" width="80.4" height="116.8"/>
	<path class="st0" d="M435.2,139.8c-3.6,13.2-15.8,21.4-15.8,21.4s-6.4-13.2-2.9-26.4c3.6-13.2,15.8-21.4,15.8-21.4
		S438.8,126.6,435.2,139.8z"/>
	<path class="st0" d="M402.7,139.8c3.6,13.2,15.8,21.4,15.8,21.4s6.4-13.2,2.9-26.4c-3.6-13.2-15.8-21.4-15.8-21.4
		S399.2,126.6,402.7,139.8z"/>
	<path class="st1" d="M408,137c9.8,9.5,11,24.2,11,24.2s-14.7-0.8-24.5-10.3c-9.8-9.5-11-24.2-11-24.2S398.2,127.5,408,137z"/>
	<path class="st1" d="M430,137c-9.8,9.5-11,24.2-11,24.2s14.7-0.8,24.5-10.3c9.8-9.5,11-24.2,11-24.2S439.7,127.5,430,137z"/>
	<path class="st0" d="M127.9,106.2c13.7,0.3,24.5,10.2,24.5,10.2s-11.3,9.4-25,9.1s-24.5-10.2-24.5-10.2S114.2,105.9,127.9,106.2z"
		/>
	<path class="st0" d="M59.2,59.5c12.3,5.9,26.5,1.9,26.5,1.9S79.8,47.9,67.5,42S41,40.2,41,40.2S46.8,53.6,59.2,59.5z"/>
	<path class="st1" d="M60.4,53.7C74.1,52.4,86,61.1,86,61.1S75.8,71.7,62.2,72.9c-13.6,1.2-25.5-7.4-25.5-7.4S46.8,54.9,60.4,53.7z"
		/>
	<path class="st1" d="M110.3,56c-1.3,13.6,7.3,25.6,7.3,25.6s10.7-10.1,12-23.7c1.3-13.6-7.3-25.6-7.3-25.6S111.6,42.4,110.3,56z"/>
	<path class="st1" d="M174.5,139.5c-7.1,11.7-4.7,26.2-4.7,26.2s14-4.4,21.2-16.1c7.1-11.7,4.7-26.2,4.7-26.2
		S181.6,127.8,174.5,139.5z"/>
	<path class="st1" d="M153.7,266.2l1-0.7c-3.7-5.3-5.7-11.6-5.8-18.1c0-9.5,4.7-18.2,9.2-26.7c0.8-1.6,1.7-3.1,2.5-4.7
		c3.4-6.4,6-13.1,8-20c7-25.9,0.1-56.4-18.3-81.7c-14.6-20-36.5-37.6-66.7-53.6L83,61.9c30.1,15.9,51.8,33.3,66.3,53.2
		c18.2,25,25,55.1,18.1,80.6c-1.9,6.9-4.6,13.5-7.9,19.8c-0.8,1.6-1.6,3.1-2.5,4.7c-4.6,8.6-9.3,17.5-9.3,27.2
		C147.9,254.2,149.9,260.7,153.7,266.2z"/>
	<circle class="st1" cx="23.9" cy="50.5" r="11.9"/>
	<path class="st1" d="M245.6,257.1H164V139h81.6V257.1z M165.2,255.8h79.1V140.3h-79.1V255.8z"/>
	<rect x="174" y="170.4" class="st2" width="51.5" height="1.3"/>
	<rect x="173.8" y="184.2" class="st2" width="51.5" height="1.3"/>
	<rect x="173.5" y="198" class="st2" width="51.5" height="1.3"/>
	<rect x="173.3" y="211.8" class="st2" width="51.5" height="1.3"/>
	<rect x="173.1" y="225.5" class="st2" width="51.5" height="1.3"/>
	<rect x="172.8" y="239.3" class="st2" width="51.5" height="1.3"/>
	<rect x="278.9" y="321.1" class="st2" width="134.4" height="1.3"/>
	<rect x="278.6" y="335.5" class="st2" width="134.4" height="1.3"/>
	<rect x="278.4" y="349.9" class="st2" width="134.4" height="1.3"/>
	<rect x="278.2" y="364.3" class="st2" width="134.4" height="1.3"/>
	<rect x="277.9" y="378.7" class="st2" width="134.4" height="1.3"/>
	<rect x="385.6" y="184.9" class="st2" width="62.8" height="1.3"/>
	<rect x="385.4" y="198.6" class="st2" width="62.8" height="1.3"/>
	<rect x="385.1" y="212.4" class="st2" width="62.8" height="1.3"/>
	<rect x="384.9" y="226.2" class="st2" width="62.8" height="1.3"/>
	<rect x="384.7" y="240" class="st2" width="62.8" height="1.3"/>
	<path class="st1" d="M442.1,395.8H262.5v-99.2h179.6V395.8z M263.8,394.6h177.1v-96.7H263.8V394.6z"/>
	<polygon class="st1" points="352.2,298 351.9,297.7 244.5,196.6 245.4,195.6 352.4,296.5 418.8,255.9 419.5,257 	"/>
	<path class="st1" d="M471,257.1h-96.7v-96.7H471V257.1z M375.6,255.8h94.2v-94.2h-94.2V255.8z"/>
	<path class="st3" d="M611.5,45.2c-11.7-19.8-34.9-20.7-34.9-20.7s-22.6-2.9-37.1,27.3c-13.5,28.1-32.1,55.2-3,61.8l5.3-16.4
		l3.3,17.6c4.1,0.3,8.3,0.4,12.5,0.2c31.2-1,60.9,0.3,60-10.9C616.2,89.2,622.7,64.2,611.5,45.2z"/>
	<path class="st4" d="M622.9,276.4c0,0-14.7,26-3.4,27.9c11.3,2,18.6-22.5,18.6-22.5L622.9,276.4z"/>
	<path class="st5" d="M651.8,154.4c-2,20.6-4.9,129.3-13.2,132.8c-8.3,3.4-22,3.4-22,3.4v-96c0,0,3.4-67.1,15.7-75h7.1
		c1.7,0,3.2,0.8,4.2,2.1c0.1,0.1,0.1,0.2,0.2,0.3C646.9,126.9,653.3,138.8,651.8,154.4z"/>
	<path class="st4" d="M524.7,309.5l2,53.4c0,0-6.4,52.4-1,68.6l15.7,2.4c0,0,17.6-52.4,15.2-71l10.3-53.4l-26-32.8L524.7,309.5z"/>
	<path class="st4" d="M584.4,290.9l2.4,26l10.3,58.3c0,0,5.9,35.8,18.1,58.8l7.8,25l13.2-4.9c0,0,3.9-51.4-11.8-91.6l-2.4-49.5
		L605.5,285L584.4,290.9z"/>
	<path class="st3" d="M612.3,207.1l-67.1-12.7c0,0-19.6,30.9-26,117.1l15.2,3.9l4.4-23l2.9,24.5l51.9,4.9l4.9-25.5l3.4,26.9
		l26.5-4.4C628.5,318.8,626.1,226.7,612.3,207.1z"/>
	<path class="st3" d="M545,429.8h-23l-2.4,14.7c0,0-29.4,43.1-7.3,40.7c22-2.4,22.5-14.2,22.5-14.2s9.3-8.8,10.3-13.2
		s-2.4-15.2-2.4-15.2L545,429.8z"/>
	<path class="st3" d="M638.1,444.9l-21.6,4.4v31.8c0,0-6.4,31.4,11.8,29.4s15.2-28.4,15.2-28.4L638.1,444.9z"/>
	<circle class="st4" cx="571.4" cy="71.2" r="26"/>
	<path class="st4" d="M566.5,92.7c0,0,7.8,17.1,5.9,20.1s39.2-2,39.2-2S593,82.9,593,77L566.5,92.7z"/>
	<path class="st4" d="M504.3,252.4c0,0-14.7,26-3.4,27.9c11.3,2,18.6-22.5,18.6-22.5L504.3,252.4z"/>
	<path class="st6" d="M624.3,172.1c0,0,4.4,23-1,35.8c-1.6,3.8-4,4.8-6.9,4.5v-17.7c0,0,3.4-67.1,15.7-75h7.1c1.7,0,3.2,0.8,4.2,2.1
		L624.3,172.1z"/>
	<path class="st5" d="M607.9,100.4c-6.4,1.4-29,6-37.7,5.6c-0.5,0-1.1,0.1-1.6,0.3l-5.6,2.6L537.5,121c-1.4,0.6-2.1,2.1-1.8,3.6
		l9.2,43c0.3,1.4-0.4,2.9-1.7,3.6c-7.5,3.8-29.6,16.8,0.3,26.4c35.3,11.3,43.1,8.8,50.5,6.9c7.3-2,22,16.2,27.4,3.4
		c4.8-11.3,1.9-30.6,1.1-34.9c-0.1-0.6,0-1.2,0.2-1.7l18.2-47.9c0.6-1.5-0.1-3.3-1.6-4l-21-10.7c-0.3-0.2-0.6-0.4-0.8-0.6l-6.7-6.7
		C610.1,100.5,609,100.2,607.9,100.4z"/>
	<path class="st5" d="M541.6,121.6h-3.9c-1.4,0-2.6,1-2.9,2.4L522,191.2l-12.7,42.1c0,0-30.9,15.2-7.8,23.5
		c23,8.3,34.8,5.4,32.3-3.9s21.1-70.1,21.1-70.1L541.6,121.6z"/>
	<circle class="st3" cx="579.4" cy="24.6" r="16.8"/>
	<path class="st3" d="M560.9,20.2c0-8.6,6.5-15.8,15-16.7c-0.6-0.1-1.2-0.1-1.8-0.1c-9.3,0-16.8,7.5-16.8,16.7
		c0,9.3,7.5,16.8,16.7,16.8c0,0,0,0,0,0c0.6,0,1.2,0,1.8-0.1C567.4,35.9,560.9,28.7,560.9,20.2z"/>
	<polygon class="st3" points="606.3,43.3 583.4,31.3 551.8,36.2 545.2,65.1 561.5,64.4 566.1,53.8 566.1,64.3 573.6,64 577.9,47.1 
		580.7,65.1 607.4,64.5 	"/>
	<ellipse class="st4" cx="597.2" cy="67" rx="3.4" ry="6"/>
</g>
</svg>
